<?xml version="1.0" standalone="no"?>
<!DOCTYPE svg PUBLIC "-//W3C//DTD SVG 20010904//EN"
 "http://www.w3.org/TR/2001/REC-SVG-20010904/DTD/svg10.dtd">
<svg version="1.0" xmlns="http://www.w3.org/2000/svg"
 width="225.000000pt" height="225.000000pt" viewBox="0 0 225.000000 225.000000"
 preserveAspectRatio="xMidYMid meet">
<metadata>
Created by potrace 1.15, written by Peter Selinger 2001-2017
</metadata>
<g transform="translate(0.000000,225.000000) scale(0.100000,-0.100000)"
fill="#000000" stroke="none">
<path d="M985 2229 c-71 -27 -176 -108 -213 -164 -46 -70 -58 -136 -44 -253
10 -85 9 -99 -5 -114 -21 -23 -13 -112 16 -171 11 -23 29 -71 41 -107 82 -248
289 -387 451 -304 99 50 187 165 233 304 15 47 31 90 36 95 30 39 41 156 17
183 -12 13 -13 28 -7 67 5 28 9 84 9 125 1 94 -19 141 -85 199 -82 72 -293
162 -375 160 -13 0 -46 -9 -74 -20z"/>
<path d="M815 1094 c-55 -39 -208 -115 -270 -134 -109 -35 -197 -105 -249
-199 -59 -109 -86 -299 -66 -465 19 -158 22 -165 105 -193 195 -66 448 -97
790 -97 342 0 595 31 790 97 63 21 71 27 82 58 20 61 35 230 28 314 -22 267
-119 416 -316 484 -88 30 -206 87 -270 131 -32 22 -62 40 -65 40 -4 0 -22 -14
-42 -31 -125 -110 -280 -110 -416 0 -21 17 -42 31 -45 30 -3 0 -28 -16 -56
-35z"/>
</g>
</svg>
