<?xml version="1.0" standalone="no"?>
<!DOCTYPE svg PUBLIC "-//W3C//DTD SVG 20010904//EN"
 "http://www.w3.org/TR/2001/REC-SVG-20010904/DTD/svg10.dtd">
<svg version="1.0" xmlns="http://www.w3.org/2000/svg"
 width="626.000000pt" height="626.000000pt" viewBox="0 0 626.000000 626.000000"
 preserveAspectRatio="xMidYMid meet">
<metadata>
Created by potrace 1.15, written by Peter Selinger 2001-2017
</metadata>
<g transform="translate(0.000000,626.000000) scale(0.100000,-0.100000)"
fill="#000000" stroke="none">
<path d="M2971 6245 c-91 -20 -157 -43 -226 -78 -226 -113 -377 -290 -449
-527 -145 -480 129 -970 616 -1102 119 -32 318 -32 436 0 300 82 540 314 621
602 132 477 -133 951 -609 1087 -108 31 -293 40 -389 18z"/>
<path d="M1645 4619 c-331 -42 -607 -301 -676 -633 -63 -307 50 -613 295 -801
250 -191 586 -220 865 -75 l58 30 11 63 c31 168 125 338 266 482 l98 100 -5
90 c-24 385 -320 698 -707 745 -94 11 -106 11 -205 -1z"/>
<path d="M4405 4619 c-95 -9 -152 -27 -263 -81 -214 -107 -373 -312 -422 -547
-30 -140 -28 -153 23 -187 76 -51 154 -128 239 -235 69 -86 158 -302 174 -416
3 -29 12 -57 18 -62 6 -5 47 -21 91 -36 115 -40 305 -47 426 -16 384 97 639
438 615 826 -9 160 -52 288 -139 415 -128 186 -341 314 -567 340 -47 5 -92 9
-100 9 -8 -1 -51 -5 -95 -10z"/>
<path d="M2603 4438 c-35 -5 -63 -14 -63 -19 0 -5 14 -31 31 -59 71 -115 139
-333 139 -444 0 -20 4 -36 8 -36 5 0 30 11 58 24 219 106 472 112 756 20 13
-5 18 2 23 33 30 186 75 316 143 416 37 53 39 51 -58 67 -82 13 -952 11 -1037
-2z"/>
<path d="M3005 3779 c-378 -87 -639 -410 -638 -789 1 -374 254 -696 618 -785
90 -22 286 -22 369 0 266 71 466 243 564 488 39 96 54 177 54 288 1 218 -67
396 -209 548 -117 127 -236 199 -397 241 -86 22 -283 27 -361 9z"/>
<path d="M1205 2935 c-109 -23 -139 -33 -245 -82 -229 -105 -438 -342 -521
-589 -56 -164 -59 -213 -57 -724 l3 -465 130 -37 c322 -93 673 -162 930 -183
39 -3 89 -8 113 -11 l42 -5 0 153 c0 85 5 190 10 236 43 340 219 646 489 847
87 65 251 153 329 176 23 7 42 15 42 19 0 3 -16 23 -35 44 -137 150 -221 334
-255 560 -6 38 -13 73 -16 78 -3 4 -195 8 -427 7 -402 0 -427 -1 -532 -24z"/>
<path d="M4166 2903 c-16 -146 -78 -334 -145 -438 -32 -50 -127 -172 -141
-180 -20 -12 -9 -22 43 -38 73 -23 216 -98 294 -153 241 -172 423 -440 488
-720 21 -91 35 -250 35 -402 l0 -135 108 7 c236 15 488 58 692 117 125 36 158
49 262 96 l79 36 -3 496 -4 496 -27 100 c-103 372 -379 646 -749 742 -102 27
-106 27 -515 31 l-411 3 -6 -58z"/>
<path d="M2725 2120 c-251 -28 -451 -125 -631 -304 -145 -146 -256 -362 -284
-556 -5 -36 -10 -279 -10 -541 l0 -476 113 -32 c723 -211 1369 -262 1977 -156
205 35 465 113 598 177 l62 31 0 396 c0 524 -13 653 -82 821 -98 239 -272 426
-499 538 -200 97 -243 103 -744 107 -231 2 -456 -1 -500 -5z"/>
</g>
</svg>
